<svg xmlns="http://www.w3.org/2000/svg" xmlns:xlink="http://www.w3.org/1999/xlink" viewBox="0 0 800 1000"><defs><style>.cls-1,.cls-35,.cls-40,.cls-41,.cls-44,.cls-55{fill:none;}.cls-2{fill:url(#linear-gradient);}.cls-3{fill:url(#linear-gradient-2);}.cls-4{fill:url(#linear-gradient-3);}.cls-5{fill:url(#linear-gradient-4);}.cls-6{fill:url(#linear-gradient-5);}.cls-7{fill:url(#linear-gradient-6);}.cls-8{fill:url(#linear-gradient-7);}.cls-9{fill:url(#linear-gradient-8);}.cls-10{fill:url(#linear-gradient-9);}.cls-11{fill:url(#linear-gradient-10);}.cls-12{fill:url(#linear-gradient-11);}.cls-13{fill:url(#linear-gradient-12);}.cls-14{fill:url(#linear-gradient-13);}.cls-15{fill:url(#linear-gradient-14);}.cls-16{fill:url(#linear-gradient-15);}.cls-17{fill:url(#linear-gradient-16);}.cls-18{fill:#fff;}.cls-19{fill:url(#linear-gradient-17);}.cls-20{fill:url(#linear-gradient-18);}.cls-21{fill:url(#linear-gradient-19);}.cls-22{fill:url(#linear-gradient-20);}.cls-23{fill:url(#linear-gradient-21);}.cls-24{fill:url(#linear-gradient-22);}.cls-25{fill:url(#linear-gradient-23);}.cls-26{fill:url(#linear-gradient-24);}.cls-27{fill:url(#linear-gradient-25);}.cls-28{fill:url(#linear-gradient-26);}.cls-29{fill:url(#linear-gradient-27);}.cls-30{fill:url(#linear-gradient-28);}.cls-31{fill:url(#linear-gradient-29);}.cls-32{fill:url(#linear-gradient-30);}.cls-33{fill:url(#linear-gradient-31);}.cls-34{fill:url(#linear-gradient-32);}.cls-35{stroke:#2e405c;stroke-miterlimit:10;}.cls-35,.cls-40,.cls-41,.cls-44,.cls-55{stroke-linecap:round;}.cls-36{opacity:0.5;}.cls-37{fill:url(#linear-gradient-33);}.cls-38{fill:url(#linear-gradient-34);}.cls-39{fill:url(#linear-gradient-35);}.cls-40,.cls-41,.cls-44,.cls-55{stroke-linejoin:round;}.cls-40,.cls-41,.cls-44{stroke-width:3px;}.cls-40{stroke:url(#linear-gradient-36);}.cls-41{stroke:url(#linear-gradient-37);}.cls-42{fill:url(#linear-gradient-38);}.cls-43{fill:url(#linear-gradient-39);}.cls-44{stroke:url(#linear-gradient-40);}.cls-45{fill:url(#linear-gradient-41);}.cls-46{fill:url(#linear-gradient-42);}.cls-47{fill:url(#linear-gradient-43);}.cls-48{fill:url(#linear-gradient-44);}.cls-49{fill:url(#linear-gradient-45);}.cls-50{fill:url(#linear-gradient-46);}.cls-51{fill:url(#linear-gradient-47);}.cls-52{fill:url(#linear-gradient-48);}.cls-53{fill:url(#linear-gradient-49);}.cls-54{fill:url(#linear-gradient-50);}.cls-55{stroke-width:5px;stroke:url(#linear-gradient-51);}.cls-56{fill:url(#linear-gradient-52);}.cls-57{fill:url(#linear-gradient-53);}.cls-58{fill:url(#linear-gradient-54);}.cls-59{fill:url(#linear-gradient-55);}.cls-60{fill:url(#linear-gradient-56);}.cls-61{fill:url(#linear-gradient-57);}.cls-62{fill:url(#linear-gradient-58);}.cls-63{fill:url(#linear-gradient-59);}.cls-64{fill:url(#linear-gradient-60);}.cls-65{fill:url(#linear-gradient-61);}.cls-66{fill:url(#linear-gradient-62);}.cls-67{fill:url(#linear-gradient-63);}.cls-68{fill:url(#linear-gradient-64);}.cls-69{fill:url(#linear-gradient-65);}.cls-70{fill:url(#linear-gradient-66);}.cls-71{fill:url(#linear-gradient-67);}.cls-72{fill:url(#linear-gradient-68);}.cls-73{fill:url(#linear-gradient-69);}.cls-74{fill:url(#linear-gradient-70);}.cls-75{fill:url(#linear-gradient-71);}.cls-76{fill:url(#linear-gradient-72);}.cls-77{fill:url(#linear-gradient-73);}.cls-78{fill:url(#linear-gradient-74);}.cls-79{fill:url(#linear-gradient-75);}.cls-80{fill:url(#linear-gradient-76);}.cls-81{fill:url(#linear-gradient-77);}.cls-82{fill:url(#linear-gradient-78);}.cls-83{fill:url(#linear-gradient-79);}.cls-84{fill:url(#linear-gradient-80);}.cls-85{fill:url(#linear-gradient-81);}.cls-86{fill:url(#linear-gradient-82);}.cls-87{fill:url(#linear-gradient-83);}.cls-88{fill:url(#linear-gradient-84);}.cls-89{fill:url(#linear-gradient-85);}.cls-90{fill:url(#linear-gradient-86);}.cls-91{fill:url(#linear-gradient-87);}</style><linearGradient id="linear-gradient" x1="543.91" y1="659.46" x2="543.91" y2="341.11" gradientUnits="userSpaceOnUse"><stop offset="0" stop-color="#fff"/><stop offset="1" stop-color="#aebddf"/></linearGradient><linearGradient id="linear-gradient-2" x1="747.47" y1="583.46" x2="747.47" y2="368.47" xlink:href="#linear-gradient"/><linearGradient id="linear-gradient-3" x1="160.16" y1="537.64" x2="160.16" y2="339.71" xlink:href="#linear-gradient"/><linearGradient id="linear-gradient-4" x1="454.54" y1="590.14" x2="454.54" y2="487.91" xlink:href="#linear-gradient"/><linearGradient id="linear-gradient-5" x1="454.54" y1="504.15" x2="454.54" y2="139.44" xlink:href="#linear-gradient"/><linearGradient id="linear-gradient-6" x1="555.45" y1="442.72" x2="539.6" y2="402.9" gradientUnits="userSpaceOnUse"><stop offset="0" stop-color="#fff" stop-opacity="0"/><stop offset="1" stop-color="#aebddf"/></linearGradient><linearGradient id="linear-gradient-7" x1="498.92" y1="420.74" x2="498.92" y2="351.27" gradientUnits="userSpaceOnUse"><stop offset="0" stop-color="#acbdde"/><stop offset="1" stop-color="#2e405c"/></linearGradient><linearGradient id="linear-gradient-8" x1="497.88" y1="416.14" x2="497.88" y2="372.26" xlink:href="#linear-gradient"/><linearGradient id="linear-gradient-9" x1="518.71" y1="83.26" x2="518.71" y2="371.64" xlink:href="#linear-gradient"/><linearGradient id="linear-gradient-10" x1="513.29" y1="51.57" x2="513.29" y2="380.34" xlink:href="#linear-gradient-7"/><linearGradient id="linear-gradient-11" x1="512.62" y1="213.17" x2="512.62" y2="453.46" xlink:href="#linear-gradient"/><linearGradient id="linear-gradient-12" x1="542.99" y1="485.17" x2="524.08" y2="437.67" xlink:href="#linear-gradient-6"/><linearGradient id="linear-gradient-13" x1="440.11" y1="460.82" x2="440.11" y2="401.35" xlink:href="#linear-gradient-7"/><linearGradient id="linear-gradient-14" x1="440.11" y1="457.3" x2="440.11" y2="403.66" xlink:href="#linear-gradient"/><linearGradient id="linear-gradient-15" x1="439.24" y1="377.49" x2="439.24" y2="508.55" xlink:href="#linear-gradient-7"/><linearGradient id="linear-gradient-16" x1="630.25" y1="40.22" x2="630.25" y2="256.73" xlink:href="#linear-gradient"/><linearGradient id="linear-gradient-17" x1="582.65" y1="179.94" x2="582.65" y2="162.36" gradientUnits="userSpaceOnUse"><stop offset="0" stop-color="#ffefa4"/><stop offset="1" stop-color="#fe8f01"/></linearGradient><linearGradient id="linear-gradient-18" x1="582.65" y1="170.66" x2="582.65" y2="151.55" xlink:href="#linear-gradient-17"/><linearGradient id="linear-gradient-19" x1="669.82" y1="184.32" x2="489.86" y2="131.67" xlink:href="#linear-gradient"/><linearGradient id="linear-gradient-20" x1="666.47" y1="195.77" x2="486.51" y2="143.12" xlink:href="#linear-gradient"/><linearGradient id="linear-gradient-21" x1="512.62" y1="360.33" x2="512.62" y2="120.45" gradientUnits="userSpaceOnUse"><stop offset="0" stop-color="#79d985"/><stop offset="1" stop-color="#027a71"/></linearGradient><linearGradient id="linear-gradient-22" x1="447.22" y1="406.58" x2="447.22" y2="138.61" xlink:href="#linear-gradient-21"/><linearGradient id="linear-gradient-23" x1="512.62" y1="291.48" x2="512.62" y2="72.29" xlink:href="#linear-gradient-21"/><linearGradient id="linear-gradient-24" x1="500.87" y1="299.78" x2="500.87" y2="344.56" xlink:href="#linear-gradient-17"/><linearGradient id="linear-gradient-25" x1="599.12" y1="349.75" x2="508.27" y2="320.35" xlink:href="#linear-gradient"/><linearGradient id="linear-gradient-26" x1="597.17" y1="355.78" x2="506.32" y2="326.38" xlink:href="#linear-gradient"/><linearGradient id="linear-gradient-27" x1="500.87" y1="262.28" x2="500.87" y2="305.45" xlink:href="#linear-gradient-17"/><linearGradient id="linear-gradient-28" x1="614.9" y1="277.45" x2="520.66" y2="297.81" xlink:href="#linear-gradient"/><linearGradient id="linear-gradient-29" x1="614.47" y1="275.44" x2="520.23" y2="295.8" xlink:href="#linear-gradient"/><linearGradient id="linear-gradient-30" x1="500.87" y1="231.18" x2="500.87" y2="268.48" xlink:href="#linear-gradient-17"/><linearGradient id="linear-gradient-31" x1="591.94" y1="264.86" x2="502.6" y2="242.24" xlink:href="#linear-gradient"/><linearGradient id="linear-gradient-32" x1="590.62" y1="270.04" x2="501.29" y2="247.42" xlink:href="#linear-gradient"/><linearGradient id="linear-gradient-33" x1="395.78" y1="379.32" x2="328.08" y2="374.2" xlink:href="#linear-gradient"/><linearGradient id="linear-gradient-34" x1="303.64" y1="349.21" x2="334.82" y2="383.82" xlink:href="#linear-gradient-7"/><linearGradient id="linear-gradient-35" x1="325.37" y1="362.42" x2="325.37" y2="418.49" xlink:href="#linear-gradient-7"/><linearGradient id="linear-gradient-36" x1="281.86" y1="276.16" x2="323.17" y2="371.56" xlink:href="#linear-gradient-7"/><linearGradient id="linear-gradient-37" x1="288.42" y1="274.41" x2="329.74" y2="369.8" xlink:href="#linear-gradient-7"/><linearGradient id="linear-gradient-38" x1="318.45" y1="352.4" x2="328.14" y2="374.77" xlink:href="#linear-gradient-7"/><linearGradient id="linear-gradient-39" x1="284.84" y1="269.94" x2="291.13" y2="284.45" xlink:href="#linear-gradient-7"/><linearGradient id="linear-gradient-40" x1="-402.16" y1="-349.6" x2="-379.14" y2="-296.44" gradientTransform="matrix(-0.19, 1.1, -0.98, -0.17, -73.71, 644.44)" xlink:href="#linear-gradient-7"/><linearGradient id="linear-gradient-41" x1="330.57" y1="217.09" x2="330.57" y2="280.12" gradientTransform="translate(-52.16 87.39) rotate(-13.97)" xlink:href="#linear-gradient-7"/><linearGradient id="linear-gradient-42" x1="345.45" y1="230.65" x2="345.45" y2="301.18" xlink:href="#linear-gradient-7"/><linearGradient id="linear-gradient-43" x1="435.78" y1="264.05" x2="348.03" y2="264.05" xlink:href="#linear-gradient-7"/><linearGradient id="linear-gradient-44" x1="362.52" y1="262.35" x2="342.48" y2="262.35" xlink:href="#linear-gradient-17"/><linearGradient id="linear-gradient-45" x1="672.14" y1="418.86" x2="653.35" y2="468.56" xlink:href="#linear-gradient"/><linearGradient id="linear-gradient-46" x1="622.99" y1="447.73" x2="692.31" y2="445.55" xlink:href="#linear-gradient-7"/><linearGradient id="linear-gradient-47" x1="638.99" y1="468.27" x2="631.15" y2="458.83" gradientTransform="translate(-141.77 584.84) rotate(-45)" gradientUnits="userSpaceOnUse"><stop offset="0" stop-color="#acbdde" stop-opacity="0"/><stop offset="1" stop-color="#2e405c"/></linearGradient><linearGradient id="linear-gradient-48" x1="638.99" y1="442.08" x2="631.15" y2="432.64" gradientTransform="translate(-123.26 577.17) rotate(-45)" xlink:href="#linear-gradient-47"/><linearGradient id="linear-gradient-49" x1="664.56" y1="423.37" x2="615.7" y2="423.37" xlink:href="#linear-gradient-7"/><linearGradient id="linear-gradient-50" x1="648.11" y1="420.76" x2="648.11" y2="434.59" xlink:href="#linear-gradient-17"/><linearGradient id="linear-gradient-51" x1="694.46" y1="464.69" x2="694.46" y2="431.72" gradientTransform="matrix(-1, 0, 0, 1, 1321.93, 0)" gradientUnits="userSpaceOnUse"><stop offset="0" stop-color="#2e405c"/><stop offset="1" stop-color="#526381"/></linearGradient><linearGradient id="linear-gradient-52" x1="734.45" y1="876.04" x2="685.09" y2="824.34" xlink:href="#linear-gradient"/><linearGradient id="linear-gradient-53" x1="594.29" y1="768.98" x2="772.85" y2="763.35" xlink:href="#linear-gradient"/><linearGradient id="linear-gradient-54" x1="701.38" y1="706.84" x2="575.49" y2="706.84" xlink:href="#linear-gradient-7"/><linearGradient id="linear-gradient-55" x1="659.01" y1="657.26" x2="659.01" y2="719.68" xlink:href="#linear-gradient-7"/><linearGradient id="linear-gradient-56" x1="799.5" y1="750.3" x2="653.48" y2="606.28" xlink:href="#linear-gradient-21"/><linearGradient id="linear-gradient-57" x1="562.19" y1="614.13" x2="589.19" y2="696.14" xlink:href="#linear-gradient-21"/><linearGradient id="linear-gradient-58" x1="732.93" y1="414.94" x2="720.93" y2="533.62" xlink:href="#linear-gradient-21"/><linearGradient id="linear-gradient-59" x1="841.83" y1="313.05" x2="658.99" y2="648.97" xlink:href="#linear-gradient-21"/><linearGradient id="linear-gradient-60" x1="718.61" y1="499.73" x2="493.25" y2="672.42" xlink:href="#linear-gradient-21"/><linearGradient id="linear-gradient-61" x1="529.76" y1="608.85" x2="595.54" y2="498.16" xlink:href="#linear-gradient-21"/><linearGradient id="linear-gradient-62" x1="311.17" y1="800.72" x2="295.43" y2="732.86" xlink:href="#linear-gradient"/><linearGradient id="linear-gradient-63" x1="672.13" y1="627.22" x2="218.15" y2="627.22" xlink:href="#linear-gradient-7"/><linearGradient id="linear-gradient-64" x1="305.07" y1="761.95" x2="309.42" y2="804.29" xlink:href="#linear-gradient"/><linearGradient id="linear-gradient-65" x1="409.25" y1="252.24" x2="229.27" y2="353.23" xlink:href="#linear-gradient-17"/><linearGradient id="linear-gradient-66" x1="434.38" y1="329.53" x2="345.88" y2="385.18" gradientUnits="userSpaceOnUse"><stop offset="0" stop-color="#ffd2bb"/><stop offset="1" stop-color="#ff6b5a"/></linearGradient><linearGradient id="linear-gradient-67" x1="435.09" y1="298.29" x2="255.11" y2="399.27" xlink:href="#linear-gradient-17"/><linearGradient id="linear-gradient-68" x1="223.88" y1="195.85" x2="185.57" y2="371.69" xlink:href="#linear-gradient-66"/><linearGradient id="linear-gradient-69" x1="204.12" y1="129.43" x2="204.12" y2="306.33" xlink:href="#linear-gradient-7"/><linearGradient id="linear-gradient-70" x1="457.19" y1="828.2" x2="134.16" y2="828.2" xlink:href="#linear-gradient"/><linearGradient id="linear-gradient-71" x1="139.49" y1="834.74" x2="672.75" y2="834.74" xlink:href="#linear-gradient"/><linearGradient id="linear-gradient-72" x1="213.6" y1="758.12" x2="213.6" y2="917.78" xlink:href="#linear-gradient"/><linearGradient id="linear-gradient-73" x1="213.6" y1="599.64" x2="213.6" y2="866.08" xlink:href="#linear-gradient"/><linearGradient id="linear-gradient-74" x1="224.07" y1="478.76" x2="237.84" y2="602.74" xlink:href="#linear-gradient"/><linearGradient id="linear-gradient-75" x1="518.46" y1="809.36" x2="395.75" y2="809.36" xlink:href="#linear-gradient"/><linearGradient id="linear-gradient-76" x1="672.13" y1="545.12" x2="218.15" y2="545.12" xlink:href="#linear-gradient-7"/><linearGradient id="linear-gradient-77" x1="4086.89" y1="822.81" x2="4086.89" y2="773.23" gradientTransform="matrix(1, 0.06, -0.06, 1, -3605.05, -244.24)" xlink:href="#linear-gradient"/><linearGradient id="linear-gradient-78" x1="332.72" y1="759.47" x2="328.21" y2="809.05" gradientTransform="matrix(-1, -0.06, -0.06, 1, 802.31, 23.1)" xlink:href="#linear-gradient"/><linearGradient id="linear-gradient-79" x1="586.04" y1="642.73" x2="171.07" y2="642.73" xlink:href="#linear-gradient-7"/><linearGradient id="linear-gradient-80" x1="192.16" y1="375.43" x2="192.16" y2="263.85" xlink:href="#linear-gradient-7"/><linearGradient id="linear-gradient-81" x1="188.09" y1="563.48" x2="188.09" y2="164.02" xlink:href="#linear-gradient-17"/><linearGradient id="linear-gradient-82" x1="134.99" y1="410.78" x2="134.99" y2="603.3" xlink:href="#linear-gradient"/><linearGradient id="linear-gradient-83" x1="240.6" y1="522.04" x2="240.6" y2="796.74" xlink:href="#linear-gradient"/><linearGradient id="linear-gradient-84" x1="465.97" y1="387.9" x2="447.11" y2="399.14" xlink:href="#linear-gradient-66"/><linearGradient id="linear-gradient-85" x1="471.58" y1="372.18" x2="413.3" y2="406.9" gradientTransform="matrix(1, 0.04, -0.04, 1, 17.56, -16.3)" xlink:href="#linear-gradient-66"/><linearGradient id="linear-gradient-86" x1="365.24" y1="563.48" x2="365.24" y2="164.02" xlink:href="#linear-gradient-17"/><linearGradient id="linear-gradient-87" x1="280.38" y1="563.48" x2="280.38" y2="164.02" xlink:href="#linear-gradient-17"/></defs><g id="Scene1"><rect class="cls-1" width="800" height="1000"/><g id="table"><rect class="cls-2" x="532.4" y="508.32" width="23.02" height="193.06"/><rect class="cls-3" x="735.96" y="450.92" width="23.02" height="193.06"/><rect class="cls-4" x="148.65" y="402.33" width="23.02" height="193.06"/><g id="Axo_Surface_" data-name="Axo Surface*"><path id="Axo_panel" data-name="Axo panel" class="cls-5" d="M126.16,405.87c0,1.79,2.54,3.58,7.64,4.94l392,105c10.18,2.73,26.69,2.73,36.87,0l212.59-57c5.09-1.37,7.64-3.15,7.64-4.94v9.36c0,1.79-2.55,3.58-7.64,4.94l-212.59,57c-10.18,2.72-26.69,2.72-36.87,0l-392-105c-5.1-1.37-7.64-3.16-7.64-4.95Z"/></g><g id="Axo_cap" data-name="Axo cap"><path id="Axo_base" data-name="Axo base" class="cls-6" d="M126.16,405.87c0-1.79,2.55-3.57,7.64-4.94l212.59-57c10.18-2.73,26.69-2.73,36.87,0l392,105c5.1,1.36,7.64,3.15,7.64,4.94s-2.55,3.57-7.64,4.94l-212.59,57c-10.18,2.73-26.69,2.73-36.87,0l-392-105C128.7,409.45,126.16,407.66,126.16,405.87Z"/></g></g><g id="computer"><polygon class="cls-7" points="625.44 426.42 505.67 394.32 464.13 405.45 583.9 437.54 625.44 426.42"/><path id="Axo_panel-2" data-name="Axo panel" class="cls-8" d="M545.51,290v108c0,7.71-4.47,11.08-8,12l-23.8,6.37a16.66,16.66,0,0,1-8.64,0l-51.27-13.73a2,2,0,0,1,0-3.77l22.68-6.08c3.54-.95,6.43-5.66,6.43-10.49V273.26Z"/><path id="Axo_panel-3" data-name="Axo panel" class="cls-9" d="M543.42,290.73V397.46c0,4.72-2.82,9.32-6.29,10.25l-24.82,6.65a16.15,16.15,0,0,1-8.45,0l-50.12-13.42a1.91,1.91,0,0,1,0-3.69l22.17-5.94c3.47-.93,6.3-5.53,6.3-10.26V274.33Z"/><g id="Axo_Surface_2" data-name="Axo Surface*"><path id="Axo_panel-4" data-name="Axo panel" class="cls-10" d="M622.9,399.54c4.1-1.1,7-5.76,7-12.13V251.57c0-8.31-4.94-16.37-11-18L407.73,177a7.7,7.7,0,0,0-4,0l3.84-1a7.66,7.66,0,0,1,4,0L622.7,232.53c6.1,1.64,11,9.7,11,18V386.38c0,6.37-2.9,11-7,12.13Z"/></g><g id="Axo_cap-2" data-name="Axo cap"><path id="Axo_base-2" data-name="Axo base" class="cls-11" d="M622.9,399.54a7.7,7.7,0,0,1-4,0L407.73,342.93c-6.11-1.64-11.05-9.7-11.05-18V189.08c0-6.37,2.9-11,7-12.13a7.7,7.7,0,0,1,4,0l211.13,56.57c6.1,1.64,11,9.7,11,18V387.41C629.9,393.78,627,398.44,622.9,399.54Z"/></g><g id="Axo_Projection" data-name="Axo Projection"><path id="Axo_base-3" data-name="Axo base" class="cls-12" d="M406.13,184.66a4.13,4.13,0,0,1,2.15,0l209,56c3.24.87,5.87,5.15,5.87,9.56l-.33,135.26c0,3.38-1.54,5.86-3.72,6.44a4.13,4.13,0,0,1-2.15,0l-209-56c-3.24-.86-5.86-5.14-5.86-9.56l.33-135.25C402.42,187.72,404,185.24,406.13,184.66Z"/></g><g id="shape"><polygon class="cls-13" points="626.52 465.72 483.59 427.42 434.02 440.7 576.95 479 626.52 465.72"/><g id="Axo_Surface_3" data-name="Axo Surface*"><path id="Axo_panel-5" data-name="Axo panel" class="cls-14" d="M333.28,410.53c0,.37.51.74,1.57,1L493.41,454a17.27,17.27,0,0,0,7.57,0l44.4-11.89c1-.28,1.57-.64,1.57-1v2.7c0,.36-.53.72-1.57,1L501,456.74a17.27,17.27,0,0,1-7.57,0L334.85,414.25c-1.06-.28-1.57-.65-1.57-1Z"/></g><g id="Axo_cap-3" data-name="Axo cap"><path id="Axo_base-4" data-name="Axo base" class="cls-15" d="M333.28,410.53c0-.36.53-.73,1.57-1l44.39-11.9a17.31,17.31,0,0,1,7.58,0l158.56,42.49c1,.28,1.57.65,1.57,1s-.53.73-1.57,1L501,454a17.27,17.27,0,0,1-7.57,0L334.85,411.56C333.79,411.27,333.28,410.9,333.28,410.53Z"/></g><g id="Axo_Compound_Projection" data-name="Axo Compound Projection"><path id="Axo_Compound" data-name="Axo Compound" class="cls-16" d="M382.31,404.63l-3.73-1c-.63-.17-.63-.44,0-.61l3.73-1a5.16,5.16,0,0,1,2.28,0l3.73,1c.63.17.63.44,0,.61l-3.73,1A5.16,5.16,0,0,1,382.31,404.63Zm12.26,2.67,3.73-1c.63-.17.63-.44,0-.61l-3.73-1a5.16,5.16,0,0,0-2.28,0l-3.73,1c-.63.17-.63.44,0,.61l3.73,1A5.16,5.16,0,0,0,394.57,407.3Zm10,2.68,3.74-1c.63-.17.63-.44,0-.61l-3.74-1a5.16,5.16,0,0,0-2.28,0l-3.73,1c-.63.17-.63.44,0,.61l3.73,1A5.16,5.16,0,0,0,404.55,410Zm10,2.67,3.73-1c.63-.17.63-.44,0-.61l-3.73-1a5.16,5.16,0,0,0-2.28,0l-3.74,1c-.63.17-.63.44,0,.61l3.74,1A5.16,5.16,0,0,0,414.54,412.65Zm10,2.68,3.73-1c.63-.17.63-.45,0-.61l-3.73-1a5.16,5.16,0,0,0-2.28,0l-3.73,1c-.63.16-.63.44,0,.61l3.73,1A5.16,5.16,0,0,0,424.52,415.33Zm10,2.67,3.73-1c.63-.17.63-.44,0-.61l-3.73-1a5.16,5.16,0,0,0-2.28,0l-3.73,1c-.63.17-.63.44,0,.61l3.73,1A5.16,5.16,0,0,0,434.5,418Zm10,2.68,3.74-1c.63-.17.63-.45,0-.61l-3.74-1a5.16,5.16,0,0,0-2.28,0l-3.73,1c-.63.16-.63.44,0,.61l3.73,1A5.16,5.16,0,0,0,444.48,420.68Zm10,2.67,3.73-1c.63-.17.63-.44,0-.61l-3.73-1a5.16,5.16,0,0,0-2.28,0l-3.74,1c-.63.17-.63.44,0,.61l3.74,1A5.16,5.16,0,0,0,454.47,423.35Zm10,2.68,3.73-1c.63-.17.63-.45,0-.61l-3.73-1a5.16,5.16,0,0,0-2.28,0l-3.73,1c-.63.16-.63.44,0,.61l3.73,1A5.47,5.47,0,0,0,464.45,426Zm10,2.67,3.73-1c.63-.17.63-.44,0-.61l-3.73-1a5.16,5.16,0,0,0-2.28,0l-3.73,1c-.63.17-.63.44,0,.61l3.73,1A5.16,5.16,0,0,0,474.43,428.7Zm10,2.68,3.74-1c.63-.17.63-.45,0-.62l-3.74-1a5.47,5.47,0,0,0-2.28,0l-3.73,1c-.63.17-.63.45,0,.62l3.73,1A5.47,5.47,0,0,0,484.41,431.38Zm10,2.67,3.73-1c.63-.17.63-.44,0-.61l-3.73-1a5.16,5.16,0,0,0-2.28,0l-3.74,1c-.63.17-.63.44,0,.61l3.74,1A5.16,5.16,0,0,0,494.4,434.05Zm10,2.68,3.73-1c.63-.17.63-.45,0-.62l-3.73-1a5.47,5.47,0,0,0-2.28,0l-3.73,1c-.63.17-.63.45,0,.62l3.73,1A5.48,5.48,0,0,0,504.38,436.73Zm10,2.67,3.73-1c.63-.17.63-.44,0-.61l-3.73-1a5.16,5.16,0,0,0-2.28,0l-3.73,1c-.63.17-.63.44,0,.61l3.73,1A5.16,5.16,0,0,0,514.36,439.4Zm10,2.67,3.74-1c.63-.16.63-.44,0-.61l-3.74-1a5.47,5.47,0,0,0-2.28,0l-3.73,1c-.63.17-.63.45,0,.61l3.73,1A5.16,5.16,0,0,0,524.34,442.07ZM376.46,412.71l4.7-1.26c.36-.1.36-.26,0-.36l-15.71-4.2a2.9,2.9,0,0,0-1.31,0l-4.7,1.26c-.36.09-.36.25,0,.35l15.71,4.21A3.21,3.21,0,0,0,376.46,412.71ZM385.9,415l3.73-1c.63-.17.63-.45,0-.62l-3.73-1a5.48,5.48,0,0,0-2.28,0l-3.73,1c-.63.17-.63.45,0,.62l3.73,1A5.47,5.47,0,0,0,385.9,415Zm10,2.67,3.73-1c.63-.17.63-.44,0-.61l-3.73-1a5.16,5.16,0,0,0-2.28,0l-3.73,1c-.63.17-.63.44,0,.61l3.73,1A5.16,5.16,0,0,0,395.88,417.65Zm10,2.68,3.73-1c.63-.17.63-.45,0-.62l-3.73-1a5.52,5.52,0,0,0-2.29,0l-3.73,1c-.63.17-.63.45,0,.62l3.73,1A5.52,5.52,0,0,0,405.87,420.33Zm10,2.67,3.73-1c.63-.17.63-.44,0-.61l-3.73-1a5.16,5.16,0,0,0-2.28,0l-3.74,1c-.62.17-.62.44,0,.61l3.74,1A5.16,5.16,0,0,0,415.85,423Zm10,2.68,3.73-1c.63-.16.63-.44,0-.61l-3.73-1a5.47,5.47,0,0,0-2.28,0l-3.73,1c-.63.17-.63.45,0,.61l3.73,1A5.48,5.48,0,0,0,425.83,425.68Zm10,2.67,3.73-1c.63-.17.63-.44,0-.61l-3.73-1a5.16,5.16,0,0,0-2.28,0l-3.73,1c-.63.17-.63.44,0,.61l3.73,1A5.16,5.16,0,0,0,435.81,428.35Zm10,2.67,3.74-1c.63-.16.63-.44,0-.61l-3.74-1a5.16,5.16,0,0,0-2.28,0l-3.73,1c-.63.17-.63.45,0,.61l3.73,1A5.16,5.16,0,0,0,445.79,431Zm10,2.68,3.73-1c.63-.17.63-.44,0-.61l-3.73-1a5.16,5.16,0,0,0-2.28,0l-3.74,1c-.63.17-.63.44,0,.61l3.74,1A5.16,5.16,0,0,0,455.78,433.7Zm10,2.67,3.73-1c.63-.16.63-.44,0-.61l-3.73-1a5.16,5.16,0,0,0-2.28,0l-3.73,1c-.63.17-.63.45,0,.61l3.73,1A5.16,5.16,0,0,0,465.76,436.37Zm10,2.68,3.73-1c.63-.17.63-.44,0-.61l-3.73-1a5.16,5.16,0,0,0-2.28,0l-3.73,1c-.63.17-.63.44,0,.61l3.73,1A5.16,5.16,0,0,0,475.74,439.05Zm10,2.67,3.74-1c.63-.17.63-.44,0-.61l-3.74-1a5.16,5.16,0,0,0-2.28,0l-3.73,1c-.63.17-.63.44,0,.61l3.73,1A5.16,5.16,0,0,0,485.72,441.72Zm19.4,5.51,4.87-1.31c.32-.08.32-.22,0-.3l-14.86-4a2.69,2.69,0,0,0-1.13,0l-4.88,1.31c-.31.08-.31.22,0,.31l14.86,4A2.74,2.74,0,0,0,505.12,447.23ZM380.3,408.58l4.53-1.22c.41-.11.41-.28,0-.39l-9.76-2.62a3.36,3.36,0,0,0-1.48,0l-4.53,1.22c-.41.11-.41.28,0,.39l9.75,2.62A3.41,3.41,0,0,0,380.3,408.58Zm10.38,2.57,3.73-1c.63-.17.63-.45,0-.61l-3.73-1a5.48,5.48,0,0,0-2.28,0l-3.73,1c-.63.16-.63.44,0,.61l3.73,1A5.48,5.48,0,0,0,390.68,411.15Zm10,2.67,3.73-1c.63-.17.63-.44,0-.61l-3.73-1a5.16,5.16,0,0,0-2.28,0l-3.73,1c-.63.17-.63.44,0,.61l3.73,1A5.16,5.16,0,0,0,400.66,413.82Zm10,2.68,3.74-1c.63-.17.63-.45,0-.62l-3.74-1a5.47,5.47,0,0,0-2.28,0l-3.73,1c-.63.17-.63.45,0,.62l3.73,1A5.48,5.48,0,0,0,410.64,416.5Zm10,2.67,3.73-1c.63-.17.63-.44,0-.61l-3.73-1a5.16,5.16,0,0,0-2.28,0l-3.74,1c-.63.17-.63.44,0,.61l3.74,1A5.16,5.16,0,0,0,420.63,419.17Zm10,2.68,3.73-1c.63-.17.63-.45,0-.62l-3.73-1a5.48,5.48,0,0,0-2.28,0l-3.73,1c-.63.17-.63.45,0,.62l3.73,1A5.47,5.47,0,0,0,430.61,421.85Zm10,2.67,3.73-1c.63-.17.63-.44,0-.61l-3.73-1a5.16,5.16,0,0,0-2.28,0l-3.73,1c-.63.17-.63.44,0,.61l3.73,1A5.16,5.16,0,0,0,440.59,424.52Zm10,2.67,3.74-1c.63-.16.63-.44,0-.61l-3.74-1a5.16,5.16,0,0,0-2.28,0l-3.73,1c-.63.17-.63.45,0,.61l3.73,1A5.16,5.16,0,0,0,450.57,427.19Zm10,2.68,3.73-1c.63-.17.63-.44,0-.61l-3.73-1a5.16,5.16,0,0,0-2.28,0l-3.74,1c-.63.17-.63.44,0,.61l3.74,1A5.16,5.16,0,0,0,460.56,429.87Zm10,2.67,3.73-1c.63-.16.63-.44,0-.61l-3.73-1a5.16,5.16,0,0,0-2.28,0l-3.73,1c-.63.17-.63.45,0,.61l3.73,1A5.16,5.16,0,0,0,470.54,432.54Zm10,2.68,3.73-1c.63-.17.63-.44,0-.61l-3.73-1a5.16,5.16,0,0,0-2.28,0l-3.73,1c-.63.17-.63.44,0,.61l3.73,1A5.16,5.16,0,0,0,480.52,435.22Zm10,2.67,3.74-1c.62-.16.62-.44,0-.61l-3.74-1a5.16,5.16,0,0,0-2.28,0l-3.73,1c-.63.17-.63.45,0,.61l3.73,1A5.16,5.16,0,0,0,490.5,437.89Zm10,2.68,3.73-1c.63-.17.63-.44,0-.61l-3.73-1a5.21,5.21,0,0,0-2.29,0l-3.73,1c-.63.17-.63.44,0,.61l3.73,1A5.21,5.21,0,0,0,500.49,440.57Zm14.28,4.07,4.64-1.24c.38-.1.38-.27,0-.37L510,440.51a3.21,3.21,0,0,0-1.38,0L504,441.75c-.39.11-.39.27,0,.37l9.38,2.52A3.21,3.21,0,0,0,514.77,444.64Zm-153.3-31,4.53-1.21c.41-.11.41-.29,0-.4l-9.75-2.61a3.41,3.41,0,0,0-1.49,0l-4.52,1.21c-.41.11-.41.29,0,.4l9.75,2.61A3.36,3.36,0,0,0,361.47,413.62Zm10.38,2.57,3.74-1c.63-.17.63-.44,0-.61l-3.74-1a5.16,5.16,0,0,0-2.28,0l-3.73,1c-.63.17-.63.44,0,.61l3.73,1A5.16,5.16,0,0,0,371.85,416.19Zm10,2.67,3.73-1c.63-.16.63-.44,0-.61l-3.73-1a5.47,5.47,0,0,0-2.28,0l-3.74,1c-.63.17-.63.45,0,.61l3.74,1A5.16,5.16,0,0,0,381.84,418.86Zm49.79,13.41,4-1.06c.56-.15.56-.4,0-.55L391.7,418.9a4.73,4.73,0,0,0-2.05,0l-4,1.06c-.56.15-.56.4,0,.55l43.89,11.76A4.73,4.73,0,0,0,431.63,432.27Zm10.1,2.64,3.73-1c.63-.17.63-.44,0-.61l-3.73-1a5.16,5.16,0,0,0-2.28,0l-3.73,1c-.63.17-.63.44,0,.61l3.73,1A5.16,5.16,0,0,0,441.73,434.91Zm10,2.68,3.74-1c.63-.17.63-.44,0-.61l-3.74-1a5.16,5.16,0,0,0-2.28,0l-3.73,1c-.63.17-.63.44,0,.61l3.73,1A5.16,5.16,0,0,0,451.71,437.59Zm10,2.67,3.73-1c.63-.17.63-.44,0-.61l-3.73-1a5.16,5.16,0,0,0-2.28,0l-3.74,1c-.63.17-.63.44,0,.61l3.74,1A5.16,5.16,0,0,0,461.7,440.26Zm10,2.68,3.73-1c.63-.17.63-.44,0-.61l-3.73-1a5.16,5.16,0,0,0-2.28,0l-3.73,1c-.63.17-.63.44,0,.61l3.73,1A5.16,5.16,0,0,0,471.68,442.94Zm10,2.67,3.73-1c.63-.17.63-.44,0-.61l-3.73-1a5.16,5.16,0,0,0-2.28,0l-3.73,1c-.63.17-.63.44,0,.61l3.73,1A5.16,5.16,0,0,0,481.66,445.61ZM496,449.67l4.54-1.22c.4-.11.4-.28,0-.39l-9.3-2.49a3.32,3.32,0,0,0-1.47,0l-4.54,1.22c-.41.1-.41.28,0,.39l9.3,2.49A3.32,3.32,0,0,0,496,449.67Z"/></g></g></g><g id="computer_popup"><g id="Axo_Projection-2" data-name="Axo Projection"><path id="Axo_base-5" data-name="Axo base" class="cls-17" d="M567.22,137.59a4.35,4.35,0,0,1,2.29,0L691,170.17c3.45.93,6.24,5.49,6.24,10.19v32.37c0,3.61-1.64,6.25-4,6.87a4.31,4.31,0,0,1-2.28,0L569.51,187c-3.45-.92-6.25-5.49-6.25-10.19V144.46C563.26,140.85,564.9,138.21,567.22,137.59Z"/></g><g id="Axo_Projection-3" data-name="Axo Projection"><path id="Axo_base-6" data-name="Axo base" class="cls-18" d="M578.2,150.58a8.52,8.52,0,0,1,4.45,0c6.72,1.8,12.17,10.69,12.17,19.84,0,7-3.2,12.16-7.72,13.37a8.52,8.52,0,0,1-4.45-.05c-6.72-1.8-12.17-10.68-12.17-19.84C570.48,156.93,573.68,151.79,578.2,150.58Z"/></g><g id="Axo_Projection-4" data-name="Axo Projection"><path id="Axo_base-7" data-name="Axo base" class="cls-19" d="M576.6,158.48a.84.84,0,0,1,.47,0l11.16,3a2.18,2.18,0,0,1,1.29,2.11v10.93a1.35,1.35,0,0,1-.82,1.42.93.93,0,0,1-.47,0l-11.16-3a2.18,2.18,0,0,1-1.29-2.1V159.9A1.36,1.36,0,0,1,576.6,158.48Z"/></g><g id="Axo_Projection-5" data-name="Axo Projection"><path id="Axo_base-8" data-name="Axo base" class="cls-20" d="M576.6,158.48a.84.84,0,0,1,.47,0l11.16,3a2.18,2.18,0,0,1,1.29,2.11v2l-6.29,3.61-.18.07a1,1,0,0,1-1-.38l-6.29-7v-2A1.36,1.36,0,0,1,576.6,158.48Z"/></g><g id="Axo_Projection-6" data-name="Axo Projection"><path id="Axo_base-9" data-name="Axo base" class="cls-21" d="M611.2,165.84a1.11,1.11,0,0,1,.6,0l58,15.54a2.74,2.74,0,0,1,1.62,2.65,1.68,1.68,0,0,1-1,1.78,1.18,1.18,0,0,1-.59,0l-58-15.55a2.73,2.73,0,0,1-1.63-2.65A1.71,1.71,0,0,1,611.2,165.84Z"/></g><g id="Axo_Projection-7" data-name="Axo Projection"><path id="Axo_base-10" data-name="Axo base" class="cls-22" d="M611.2,177.86a1.22,1.22,0,0,1,.6,0l24.57,6.59a2.74,2.74,0,0,1,1.62,2.64,1.71,1.71,0,0,1-1,1.79,1.08,1.08,0,0,1-.59,0l-24.57-6.58a2.74,2.74,0,0,1-1.63-2.65A1.7,1.7,0,0,1,611.2,177.86Z"/></g></g><g id="computer_window"><g id="Axo_Projection-8" data-name="Axo Projection"><path id="Axo_base-11" data-name="Axo base" class="cls-23" d="M421.72,168.16a5.25,5.25,0,0,1,2.75,0l176.29,47.24c4.16,1.11,7.54,6.61,7.54,12.28V366c0,4.35-2,7.53-4.79,8.28a5.25,5.25,0,0,1-2.75,0L424.47,327c-4.16-1.11-7.53-6.61-7.53-12.28V176.44C416.94,172.09,418.92,168.91,421.72,168.16Z"/></g><path class="cls-24" d="M477.5,182.4l-53-14.21a5.25,5.25,0,0,0-2.75,0c-2.8.75-4.78,3.93-4.78,8.28V314.71c0,5.67,3.37,11.17,7.53,12.28l53,14.21Z"/><path class="cls-25" d="M600.76,215.43,424.47,168.19a5.25,5.25,0,0,0-2.75,0c-2.8.75-4.78,3.93-4.78,8.28v22.48L608.3,250.19V227.71C608.3,222,604.92,216.54,600.76,215.43Z"/><g id="Axo_Projection-9" data-name="Axo Projection"><path id="Axo_base-12" data-name="Axo base" class="cls-18" d="M491.08,307.09a2.2,2.2,0,0,1,1.11,0l94.55,25.34c1.67.44,3,2.65,3,4.93v19.08c0,1.75-.8,3-1.92,3.33a2.1,2.1,0,0,1-1.11,0l-94.55-25.33c-1.67-.45-3-2.66-3-4.93V310.41C489.17,308.67,490,307.39,491.08,307.09Z"/></g><g id="Axo_Projection-10" data-name="Axo Projection"><path id="Axo_base-13" data-name="Axo base" class="cls-26" d="M498.84,315.66a3.89,3.89,0,0,1,2,0c3.08.83,5.57,4.89,5.57,9.08,0,3.21-1.47,5.57-3.53,6.12a3.93,3.93,0,0,1-2,0c-3.07-.83-5.57-4.89-5.57-9.08C495.3,318.57,496.77,316.22,498.84,315.66Z"/></g><g id="Axo_Projection-11" data-name="Axo Projection"><path id="Axo_base-14" data-name="Axo base" class="cls-27" d="M515.76,323.29a.54.54,0,0,1,.31,0l57.64,15.45a1.45,1.45,0,0,1,.87,1.42.9.9,0,0,1-.55.95.58.58,0,0,1-.32,0l-57.64-15.44a1.48,1.48,0,0,1-.87-1.42A.91.91,0,0,1,515.76,323.29Z"/></g><g id="Axo_Projection-12" data-name="Axo Projection"><path id="Axo_base-15" data-name="Axo base" class="cls-28" d="M515.76,329.05a.54.54,0,0,1,.31,0l25.16,6.74a1.47,1.47,0,0,1,.87,1.42.92.92,0,0,1-.56,1,.65.65,0,0,1-.31,0l-25.16-6.74a1.47,1.47,0,0,1-.87-1.42A.9.9,0,0,1,515.76,329.05Z"/></g><g id="Axo_Projection-13" data-name="Axo Projection"><path id="Axo_base-16" data-name="Axo base" class="cls-18" d="M491.08,267.46a2.1,2.1,0,0,1,1.11,0l94.55,25.33c1.67.45,3,2.66,3,4.93v19.09c0,1.74-.8,3-1.92,3.32a2.2,2.2,0,0,1-1.11,0L492.19,294.8c-1.67-.44-3-2.65-3-4.93V270.79C489.17,269,490,267.76,491.08,267.46Z"/></g><g id="Axo_Projection-14" data-name="Axo Projection"><path id="Axo_base-17" data-name="Axo base" class="cls-29" d="M498.84,276a3.89,3.89,0,0,1,2,0c3.08.82,5.57,4.89,5.57,9.08,0,3.21-1.47,5.56-3.53,6.11a3.93,3.93,0,0,1-2,0c-3.07-.82-5.57-4.89-5.57-9.08C495.3,278.94,496.77,276.59,498.84,276Z"/></g><g id="Axo_Projection-15" data-name="Axo Projection"><path id="Axo_base-18" data-name="Axo base" class="cls-30" d="M515.76,283.66a.65.65,0,0,1,.31,0l57.64,15.44a1.46,1.46,0,0,1,.87,1.42.92.92,0,0,1-.55,1,.7.7,0,0,1-.32,0L516.07,286a1.47,1.47,0,0,1-.87-1.42A.92.92,0,0,1,515.76,283.66Z"/></g><g id="Axo_Projection-16" data-name="Axo Projection"><path id="Axo_base-19" data-name="Axo base" class="cls-31" d="M515.76,289.42a.54.54,0,0,1,.31,0l25.16,6.74a1.48,1.48,0,0,1,.87,1.42.91.91,0,0,1-.56,1,.55.55,0,0,1-.31,0l-25.16-6.74a1.45,1.45,0,0,1-.87-1.41A.91.91,0,0,1,515.76,289.42Z"/></g><g id="Axo_Projection-17" data-name="Axo Projection"><path id="Axo_base-20" data-name="Axo base" class="cls-18" d="M491.08,227.84a2.09,2.09,0,0,1,1.11,0l94.55,25.33c1.67.45,3,2.66,3,4.94V277.2c0,1.75-.8,3-1.92,3.32a2,2,0,0,1-1.11,0l-94.55-25.33c-1.67-.45-3-2.66-3-4.93V231.16C489.17,229.42,490,228.14,491.08,227.84Z"/></g><g id="Axo_Projection-18" data-name="Axo Projection"><path id="Axo_base-21" data-name="Axo base" class="cls-32" d="M498.84,236.41a3.89,3.89,0,0,1,2,0c3.08.83,5.57,4.89,5.57,9.08,0,3.21-1.47,5.56-3.53,6.12a3.93,3.93,0,0,1-2,0c-3.07-.83-5.57-4.89-5.57-9.08C495.3,239.32,496.77,237,498.84,236.41Z"/></g><g id="Axo_Projection-19" data-name="Axo Projection"><path id="Axo_base-22" data-name="Axo base" class="cls-33" d="M515.76,244a.54.54,0,0,1,.31,0l57.64,15.45a1.45,1.45,0,0,1,.87,1.42.9.9,0,0,1-.55.95.58.58,0,0,1-.32,0l-57.64-15.45a1.47,1.47,0,0,1-.87-1.42A.9.9,0,0,1,515.76,244Z"/></g><g id="Axo_Projection-20" data-name="Axo Projection"><path id="Axo_base-23" data-name="Axo base" class="cls-34" d="M515.76,249.79a.65.65,0,0,1,.31,0l25.16,6.74a1.47,1.47,0,0,1,.87,1.42.9.9,0,0,1-.56,1,.54.54,0,0,1-.31,0l-25.16-6.74a1.48,1.48,0,0,1-.87-1.42A.92.92,0,0,1,515.76,249.79Z"/></g><g id="Axo_Projection-21" data-name="Axo Projection"><path id="Axo_base-24" data-name="Axo base" class="cls-18" d="M427.48,178.66a2.25,2.25,0,0,1,1.15,0l167.92,45c1.75.47,3.16,2.78,3.16,5.16V237c0,1.83-.83,3.16-2,3.48a2.25,2.25,0,0,1-1.15,0l-167.92-45c-1.75-.47-3.17-2.78-3.17-5.16v-8.18C425.46,180.31,426.3,179,427.48,178.66Z"/></g><g id="Axo_Projection-22" data-name="Axo Projection"><path id="Axo_base-25" data-name="Axo base" class="cls-35" d="M588.24,226.68a2.59,2.59,0,0,1,2.69,1.48c1,1.59,1,3.75,0,4.82a1.87,1.87,0,0,1-.86.54,2.56,2.56,0,0,1-2.68-1.49c-1-1.59-1-3.75,0-4.82A1.77,1.77,0,0,1,588.24,226.68Z"/></g><line class="cls-35" x1="592.7" y1="235.87" x2="590.93" y2="232.98"/><g id="Axo_Projection-23" data-name="Axo Projection"><path id="Axo_base-26" data-name="Axo base" class="cls-18" d="M427.18,213.19a1.83,1.83,0,0,1,1,0l35.71,9.57c1.54.41,2.78,2.44,2.78,4.54,0,1.61-.74,2.78-1.77,3.06a1.93,1.93,0,0,1-1,0l-35.71-9.57c-1.54-.41-2.78-2.44-2.78-4.53C425.41,214.64,426.14,213.46,427.18,213.19Z"/></g><g id="Axo_Projection-24" data-name="Axo Projection" class="cls-36"><path id="Axo_base-27" data-name="Axo base" class="cls-18" d="M427.18,232.15a2,2,0,0,1,1,0L442.56,236c1.54.41,2.78,2.45,2.78,4.54,0,1.61-.74,2.78-1.77,3.06a2,2,0,0,1-1,0l-14.37-3.85c-1.54-.41-2.78-2.45-2.78-4.54C425.41,233.6,426.14,232.43,427.18,232.15Z"/></g></g><g id="lamp"><g id="Axo_cap-4" data-name="Axo cap"><path id="Axo_base-28" data-name="Axo base" class="cls-37" d="M302.32,374.29c0-1.85,2.63-3.69,7.89-5.1,10.52-2.82,27.58-2.82,38.1,0,5.26,1.41,7.89,3.26,7.89,5.1s-2.63,3.7-7.89,5.1c-10.52,2.82-27.58,2.82-38.1,0C305,378,302.32,376.14,302.32,374.29Z"/></g><g id="Axo_Surface_4" data-name="Axo Surface*"><path id="Axo_panel-6" data-name="Axo panel" class="cls-38" d="M302.32,371.17c0,1.58,2.25,3.16,6.75,4.37,9,2.41,23.6,2.41,32.6,0,4.5-1.21,6.75-2.79,6.75-4.37v3.58c0,1.58-2.25,3.16-6.75,4.37-9,2.41-23.6,2.41-32.6,0-4.5-1.21-6.75-2.79-6.75-4.37Z"/></g><g id="Axo_cap-5" data-name="Axo cap"><path id="Axo_base-29" data-name="Axo base" class="cls-39" d="M302.32,371.17c0-1.58,2.25-3.16,6.75-4.37,9-2.41,23.6-2.41,32.6,0,4.51,1.21,6.75,2.79,6.75,4.37s-2.25,3.16-6.75,4.37c-9,2.41-23.6,2.41-32.6,0C304.57,374.33,302.32,372.75,302.32,371.17Z"/></g><line class="cls-40" x1="321.78" y1="370.53" x2="283.25" y2="277.19"/><line class="cls-41" x1="328.35" y1="368.77" x2="289.82" y2="275.44"/><path class="cls-42" d="M325.37,359.53h0a7.91,7.91,0,0,0-7.91,7.91v3.4h0c0,.54.78,1.09,2.32,1.5a25.41,25.41,0,0,0,11.18,0c1.55-.41,2.32-1,2.32-1.5v-3.4A7.91,7.91,0,0,0,325.37,359.53Z"/><circle class="cls-43" cx="287.98" cy="277.19" r="7.91"/><line class="cls-44" x1="290.42" y1="276.9" x2="344.06" y2="262.53"/><rect class="cls-45" x="306.12" y="244.59" width="48.91" height="23.95" rx="11.97" transform="translate(71.71 -72.21) rotate(13.97)"/><g id="Axo_Projection-25" data-name="Axo Projection"><path id="Axo_base-30" data-name="Axo base" class="cls-46" d="M350.35,243.22l12.28,2.59-7.91,36.43-12.91-3.47a18.29,18.29,0,0,1-13-21.92h0A18.29,18.29,0,0,1,350.35,243.22Z"/></g><g id="Axo_Projection-26" data-name="Axo Projection"><path id="Axo_base-31" data-name="Axo base" class="cls-47" d="M354,282.08c-4.9-1.31-8.37-6.89-8.37-14.49,0-9.93,5.91-19.57,13.2-21.52a9.22,9.22,0,0,1,4.83,0c4.9,1.31,8.36,6.89,8.36,14.5,0,9.93-5.91,19.56-13.19,21.51A9.22,9.22,0,0,1,354,282.08Z"/></g><g id="Axo_Projection-27" data-name="Axo Projection"><path id="Axo_base-32" data-name="Axo base" class="cls-18" d="M310.72,254a.69.69,0,0,1,.35,0l9.51,2.55a1.61,1.61,0,0,1,1,1.56,1,1,0,0,1-.61,1.05.69.69,0,0,1-.35,0l-9.51-2.55a1.61,1.61,0,0,1-1-1.56A1,1,0,0,1,310.72,254Z"/></g><g id="Axo_Projection-28" data-name="Axo Projection"><path id="Axo_base-33" data-name="Axo base" class="cls-18" d="M312.9,247.55a.7.7,0,0,1,.38,0l9.37,2.58c.52.14.73.85.46,1.58a1.68,1.68,0,0,1-1.06,1.07,1,1,0,0,1-.38,0l-9.37-2.58c-.52-.14-.72-.85-.45-1.58A1.64,1.64,0,0,1,312.9,247.55Z"/></g><path class="cls-48" d="M358.36,262.35A8.39,8.39,0,0,0,350,254l-.55,0a26.72,26.72,0,0,0-3.78,13.61c0,.68,0,1.35.09,2a8.38,8.38,0,0,0,12.64-7.24Z"/></g><g id="mug"><g id="Axo_cap-6" data-name="Axo cap"><path id="Axo_base-34" data-name="Axo base" class="cls-49" d="M627.46,465.53c0-1.85,2.64-3.7,7.92-5.11,10.56-2.83,27.67-2.83,38.23,0,5.27,1.41,7.91,3.26,7.91,5.12s-2.64,3.7-7.91,5.12c-10.56,2.83-27.67,2.83-38.23,0C630.1,469.24,627.46,467.39,627.46,465.53Z"/></g><g id="Axo_Surface_5" data-name="Axo Surface*"><path id="Axo_panel-7" data-name="Axo panel" class="cls-50" d="M627.46,423.37c0,1.42,2,2.84,6,3.92,8.07,2.16,21.14,2.16,29.21,0,4-1.08,6-2.5,6-3.91v42.2c0,1.42-2,2.84-6,3.92-8.07,2.16-21.14,2.16-29.21,0-4-1.08-6-2.5-6-3.92Z"/></g><rect class="cls-51" x="628.56" y="461.48" width="13.03" height="4.16" rx="2.08" transform="translate(513.8 -313.3) rotate(45)"/><rect class="cls-52" x="628.56" y="435.29" width="13.03" height="4.16" rx="2.08" transform="translate(495.28 -320.97) rotate(45)"/><g id="Axo_cap-7" data-name="Axo cap"><path id="Axo_base-35" data-name="Axo base" class="cls-53" d="M627.46,423.37c0-1.41,2-2.83,6-3.91,8.07-2.16,21.14-2.16,29.21,0,4,1.08,6,2.5,6,3.92s-2,2.83-6,3.91c-8.07,2.16-21.14,2.16-29.21,0C629.48,426.21,627.46,424.79,627.46,423.37Z"/></g><path class="cls-54" d="M662.72,425.47c-8.07-2.17-21.14-2.17-29.21,0a22.51,22.51,0,0,0-2.74.91,22.51,22.51,0,0,0,2.74.91c8.07,2.16,21.14,2.16,29.21,0a21.75,21.75,0,0,0,2.73-.91A22.32,22.32,0,0,0,662.72,425.47Z"/><path class="cls-55" d="M631.78,434.22l-6.12,1.64c-1.39.37-2.51,2.2-2.51,4.09v19.43c0,1.88,1.12,3.11,2.51,2.74l6.12-1.64"/></g><g id="plant"><g id="Axo_cap-8" data-name="Axo cap"><path id="Axo_base-36" data-name="Axo base" class="cls-56" d="M605.79,814.23c0-4.77,6.81-9.54,20.4-13.19,27.2-7.29,71.3-7.29,98.5,0,13.6,3.65,20.4,8.43,20.4,13.2s-6.8,9.55-20.4,13.19c-27.2,7.29-71.3,7.29-98.5,0C612.59,823.79,605.79,819,605.79,814.23Z"/></g><g id="Axo_Surface_6" data-name="Axo Surface*"><path id="Axo_panel-8" data-name="Axo panel" class="cls-57" d="M605.79,706.84c0,3.65,5.2,7.3,15.59,10.08,20.78,5.57,54.47,5.57,75.25,0,10.39-2.78,15.59-6.43,15.59-10.07V814.36c0,3.65-5.2,7.3-15.59,10.08-20.78,5.57-54.47,5.57-75.25,0-10.39-2.78-15.59-6.43-15.59-10.08Z"/></g><g id="Axo_cap-9" data-name="Axo cap"><path id="Axo_base-37" data-name="Axo base" class="cls-58" d="M605.79,706.84c0-3.65,5.2-7.3,15.59-10.08,20.78-5.57,54.47-5.57,75.25,0,10.4,2.78,15.59,6.44,15.59,10.09s-5.2,7.29-15.59,10.07c-20.78,5.57-54.47,5.57-75.25,0C611,714.14,605.79,710.49,605.79,706.84Z"/></g><path class="cls-59" d="M696.63,712.23c-20.78-5.57-54.47-5.57-75.25,0a55.18,55.18,0,0,0-7,2.36,57.65,57.65,0,0,0,7,2.33c20.78,5.57,54.47,5.57,75.25,0a57.85,57.85,0,0,0,7.06-2.33A55.36,55.36,0,0,0,696.63,712.23Z"/><path class="cls-60" d="M658.89,721.22s3.89-79.68,26-115.38c26.76-43.19,83.89-18.58,81.89,21.47s-4.67,66.19,4,72.57c0,0-35.25-25.54-50.63-54s-14.27-57.47,8.4-59.6c0,0-22.21-9.07-40.89,22.06s-24,112.87-24,112.87A22.26,22.26,0,0,1,658.89,721.22Z"/><path class="cls-61" d="M658.89,721.21S658,640,598.32,634.69s-73.79,57-63.4,100.68a32.36,32.36,0,0,1,11.73-21.55c11-8.79,6.67-20.79,7-31.46s65.34,14.67,57-42c0,0,44.23,8.34,43.45,80.85Z"/></g><g id="plant_leaf2"><path class="cls-62" d="M667.67,548.68s-9.34-23.81,13.78-38.46S725,504.9,732.56,496s40.9,3.41,48.9-23c0,0,3.78,39.25-42.67,57.45S667.67,548.68,667.67,548.68Z"/><path class="cls-63" d="M658.89,721.21s-17.45-126.75,4.78-173.42S774.35,529.42,781.46,473c0,0,4.44,33.41-2.22,47.64s-17.78,8.44-21.78,22.67-63.57,47.11-89.79,5.33c0,0-10.53,19.52-13.39,63.51s7.33,109,7.33,109Z"/></g><g id="plant_leaf"><path class="cls-64" d="M663.67,721.21s-.89-55.24-27.12-129.67c0,0,17.64-36.31-2.81-52.86S580,519.16,575,499.47s-36.14-29.24-64.49-19.61c0,0-1.7,20.63,21.17,34.71,16.56,10.2,25.8,20.18,28.47,46.11,3.39,33,37,64.45,73.64,34.67,0,0,23.92,55.68,25.15,125.86Z"/><path class="cls-65" d="M510.46,479.86s-1.7,20.63,21.17,34.71c16.56,10.2,25.8,20.18,28.47,46.11,3.39,33,37,64.45,73.64,34.67C633.74,595.35,594.84,512.39,510.46,479.86Z"/></g><g id="character_leg"><path class="cls-66" d="M274.48,741.22a101.18,101.18,0,0,1-1.83,26.06c-2.85,12.83-4.07,19.35-3.87,26.27s6.81,16.9,37.66,6.11C327.2,792.4,344.6,785,345.39,774.2s-10.06-10.19-22.07-8.56c-9.94,1.35-14-24.42-14-24.42Z"/><path class="cls-67" d="M262.27,653.11c6.22,57,11.58,93.64,11.58,93.64a53.36,53.36,0,0,0,37.41-.57s19.51-159,22.38-181.41-1.69-59.39-32.57-60.15C264.63,503.72,252.41,562.74,262.27,653.11Z"/><path class="cls-68" d="M345.39,774.2a12.7,12.7,0,0,0-.08-2.73,15.75,15.75,0,0,1-2.42,4.77c-4.28,5.91-33.19,18.94-52.53,22.81-10,2-16.74.1-21-2.2,2.18,6.19,10.92,11.95,37.05,2.81C327.2,792.4,344.6,785,345.39,774.2Z"/></g><g id="character_hand_left"><path class="cls-69" d="M260.43,364.13c-17.31-6.17-74.93-30-100-36.48-33.79-8.81-50.08,40.64-19.67,51,48.81,16.56,89.6,27.38,107.68,30.88C275.18,414.67,291.09,375.05,260.43,364.13Z"/><path class="cls-70" d="M341.06,358.45s24.74-8.13,29.2-11,8.78-5,10.75-2.79c0,0,11.62-3.46,13.52-3.34s3.61,3.13,3.61,3.13,8.42.26,10.94.5,5,1.6,5.84,3,4.47,7.95,4.16,8.88-3.18,1.4-5.32-.35a31.76,31.76,0,0,1-4.32-4.67l-6.68.07s20.29,9.51,21.18,10.32-.78,3.94-5.19,3.18-11.67-3.76-11.67-3.76l-10.17.76s-9.57,4.37-12.21,7.82,4.33,4.09,8,4.74,7.41.9,7,4.28c-.48,4.46-5,3.69-10.63,3.57s-12.66-.42-20.29-3.41-18.65.13-18.65.13Z"/><path class="cls-71" d="M343.15,353.81s-69.87,6.61-87.33,8.95-27.34,19.31-23.12,32.95,20.53,18.58,46.92,10.93,75.86-25.24,75.86-25.24S357.84,360.19,343.15,353.81Z"/></g><g id="character_head"><path class="cls-72" d="M167.59,318.84s8.11-11.34,6.83-25.88c-.8-9-9.52-36.73,2.34-58.49s48-15.79,56.15-5.29,10.59,20.74,9.57,31.87,2.5,11.48,4.21,14.26-5.29,6-5.29,6-.19,22.09-9.38,26.79a13.73,13.73,0,0,1-9.15,1.05l-.58,18.51Z"/><path class="cls-73" d="M169.51,291.07c-11.62-20-10.08-39.52-6.19-52.93,5-17.11,16.49-18.22,16.49-18.22s5.44-12.42,25.25-13.44c17.62-.92,38.13,2.94,41.8,16.86,3.16,12-2.49,16.57-7,17.95-4.16,1.29-7.49,3.09-3.22,13.68s-6.17,16.76-5.57,24.29,7.75,2,10.29,2,2,11.4.91,15.67c-2.12,8.1-7.33,13-14.25,11.71-8.53-1.63-3.19-16.66-2.24-29.83s-.29-17.36-6.51-18.54c-9.47-1.8-17.75,13.51-5.4,22.62,2.37,1.74,5,8.28-3.43,16.69C202.68,307.42,178.6,306.69,169.51,291.07Z"/></g><g id="character_body"><g id="Axo_cap-10" data-name="Axo cap"><path id="Axo_base-38" data-name="Axo base" class="cls-74" d="M124.56,828.2c0-6.69,10.79-13.38,32.35-18.49,43.12-10.21,113-10.21,156.17,0,21.57,5.11,32.34,11.81,32.34,18.5s-10.78,13.38-32.34,18.49c-43.13,10.21-113,10.21-156.17,0C135.34,841.59,124.56,834.89,124.56,828.2Z"/></g><g id="Axo_Surface_7" data-name="Axo Surface*"><path id="Axo_panel-9" data-name="Axo panel" class="cls-75" d="M123.4,817.71c0,6.19,8.8,12.38,26.42,17.1,35.23,9.44,92.34,9.44,127.57,0,17.6-4.72,26.42-10.9,26.42-17.09v9.88c0,6.18-8.82,12.37-26.42,17.08-35.23,9.44-92.34,9.44-127.57,0-17.62-4.72-26.42-10.9-26.42-17.09Z"/></g><g id="Axo_cap-11" data-name="Axo cap"><path id="Axo_base-39" data-name="Axo base" class="cls-76" d="M123.4,817.71c0-6.18,8.81-12.36,26.42-17.08,35.23-9.44,92.34-9.44,127.57,0,17.61,4.72,26.42,10.91,26.42,17.09s-8.82,12.37-26.42,17.09c-35.23,9.44-92.34,9.44-127.57,0C132.2,830.09,123.4,823.9,123.4,817.71Z"/></g><g id="shape-2" data-name="shape"><path id="Axo_panel-10" data-name="Axo panel" class="cls-77" d="M204,586.64c0,.66.93,1.32,2.81,1.82a30.86,30.86,0,0,0,13.59,0c1.87-.5,2.81-1.16,2.81-1.82V816.41c0,.66-.94,1.31-2.81,1.82a31.16,31.16,0,0,1-13.59,0c-1.88-.51-2.81-1.16-2.81-1.82Z"/></g><g id="shape-3" data-name="shape"><path id="Axo_panel-11" data-name="Axo panel" class="cls-78" d="M336.82,588a6.67,6.67,0,0,0-3.38,0L281.79,601.8a69.6,69.6,0,0,1-36.1,0l-111.9-30a69.63,69.63,0,0,0,36.11,0L221.54,558a6.46,6.46,0,0,1,3.38,0Z"/></g><rect class="cls-79" x="410.28" y="798.03" width="121.62" height="22.67"/><path class="cls-80" d="M240.6,586.64c-33.84,10.1-112.15,13.08-131.4-51,0,0,116.93-24.3,145.6-31.95,31.89-8.51,70.65-11.34,75.78,20.23C337.22,564.86,280.12,574.84,240.6,586.64Z"/><path class="cls-81" d="M380.66,763.66s1,18-2.72,32.91c-4.24,16.81,2.31,22.68,10.49,23.33,25.21,2,59.46,0,78.68-3.56,11.87-2.19,10.08-19.14-8.5-21.94-37.49-5.65-42.49-30.52-42.49-30.52Z"/><path class="cls-82" d="M376.64,807.16c4.44,12.33,76.35,6.54,85.24,4.9,4.12-.76,13.09-3.06,12.3-6.77,1.48,5-1,9.93-7.07,11.05-19.22,3.55-53.47,5.57-78.68,3.56C382.28,819.41,377.06,816,376.64,807.16Z"/><path class="cls-83" d="M133.79,535.65s14.67,65.46,94.24,64.1C280.14,598.87,337,578.12,341.65,581s-8.51,40.87,10.87,97.26C371,732.14,380,769.46,380,769.46s17.42,6.85,37.42-3.65c0,0-9.29-164.69-10.49-187.27s-6.37-64.73-59-64.73C317.65,513.81,133.79,535.65,133.79,535.65Z"/><path class="cls-84" d="M148.72,329.88s6.24-13.79,11.66-16.69c11.08-5.91,49.56-1.46,60.64,5.25s14.57,24.19,14.57,24.19Z"/><path class="cls-85" d="M269.93,521.74s-30.74,46-110.44,40.85c-45.16-2.94-56.61-25.45-52.45-33.76s25.18-74.25,15.83-135.55,14.38-70.52,34.85-73.68S264.33,321.49,261.09,369C257.85,416.33,235.3,467.43,269.93,521.74Z"/><g id="shape-4" data-name="shape"><path id="Axo_panel-12" data-name="Axo panel" class="cls-86" d="M147.76,487.06a6.52,6.52,0,0,0-7.15,9.86l53.84,82.71a82.56,82.56,0,0,0,47.88,34.81l-111.9-30a82.54,82.54,0,0,1-47.88-34.8L28.71,466.93a6.52,6.52,0,0,1,7.15-9.85Z"/></g><g id="shape-5" data-name="shape"><path id="Axo_base-40" data-name="Axo base" class="cls-87" d="M147.76,487.06a6.52,6.52,0,0,1,3.77,2.74l53.85,82.72a69.49,69.49,0,0,0,76.41,29.28L333.44,588a6.67,6.67,0,0,1,3.38,0,6.52,6.52,0,0,1,0,12.6L285.17,614.4a82.5,82.5,0,0,1-90.72-34.77l-53.84-82.71a6.52,6.52,0,0,1,7.15-9.86Z"/></g></g><g id="character_hand_right"><path class="cls-88" d="M454.41,384.45s-3.56,13.65-3.26,17.21,2.75,4.06,3.57,3.25,7.22-18.5,7.22-18.5Z"/><path class="cls-89" d="M408.17,386.44s15.77-8.87,27.46-16.43,15.17-6.06,18.23-4.58,2.4,5,2.4,5,6,.28,5.56,6.22c0,0,7,.91,4.64,6.93,0,0,4.46,1.81,2.42,7.57s-4.92,15.18-7.15,15.68-3.89-2.68-2.9-6.78,1.71-8.69,1.71-8.69a84.13,84.13,0,0,1-9.36,7c-4.49,2.75-16.25,1.59-26.32,6.76Z"/><path class="cls-90" d="M409.77,382.29s-70.52,18.08-87.3,23.47S299.76,430,306.31,442.68s25.61,15,50.24,2.81,70.22-38.22,70.22-38.22S425.36,386,409.77,382.29Z"/><path class="cls-91" d="M338.16,409c-13.61-12.34-69-54.86-90.17-69.74s-59.41,19.54-21,53.9,70.08,48.56,86.13,57.61C336.83,464.12,367.49,435.59,338.16,409Z"/></g></g></svg>